<?xml version="1.0" encoding="UTF-8" standalone="no"?>
<!-- Created with Inkscape (http://www.inkscape.org/) -->

<svg
   xmlns:dc="http://purl.org/dc/elements/1.1/"
   xmlns:cc="http://creativecommons.org/ns#"
   xmlns:rdf="http://www.w3.org/1999/02/22-rdf-syntax-ns#"
   xmlns:svg="http://www.w3.org/2000/svg"
   xmlns="http://www.w3.org/2000/svg"
   xmlns:sodipodi="http://sodipodi.sourceforge.net/DTD/sodipodi-0.dtd"
   xmlns:inkscape="http://www.inkscape.org/namespaces/inkscape"
   version="1.1"
   id="svg2"
   width="980"
   height="980"
   viewBox="0 0 980 980"
   sodipodi:docname="icon_x.svg"
   inkscape:version="0.92.4 (f8dce91, 2019-08-02)">
  <metadata
     id="metadata8">
    <rdf:RDF>
      <cc:Work
         rdf:about="">
        <dc:format>image/svg+xml</dc:format>
        <dc:type
           rdf:resource="http://purl.org/dc/dcmitype/StillImage" />
        <dc:title></dc:title>
      </cc:Work>
    </rdf:RDF>
  </metadata>
  <defs
     id="defs6" />
  <sodipodi:namedview
     pagecolor="#ffffff"
     bordercolor="#666666"
     borderopacity="1"
     objecttolerance="10"
     gridtolerance="10"
     guidetolerance="10"
     inkscape:pageopacity="0"
     inkscape:pageshadow="2"
     inkscape:window-width="640"
     inkscape:window-height="480"
     id="namedview4"
     showgrid="false"
     inkscape:zoom="0.24081633"
     inkscape:cx="490"
     inkscape:cy="490"
     inkscape:window-x="953"
     inkscape:window-y="452"
     inkscape:window-maximized="0"
     inkscape:current-layer="svg2" />
  <g
     id="g3715"
     transform="translate(2,2)">
    <path
       style="fill:#d4d4d4"
       d="M 66.5,978.47716 C 52.08536,976.2197 37.649312,968.58691 25.199383,956.64023 17.739683,949.48207 9.0062513,936.82122 5.391,927.92403 -1.4257702,911.14785 -1.631079,876.88201 4.9840231,860 11.118375,844.34488 4.670043,851.1176 190.88226,664.75 L 365.48655,490 190.88226,315.25 C 4.670043,128.8824 11.118375,135.65512 4.9840231,120 -1.7896003,102.71343 -1.4060498,68.305018 5.7501249,51.272809 13.758125,32.213195 32.175205,13.774087 51.179101,5.7894968 68.306973,-1.4068714 102.66397,-1.8089826 120,4.9840231 135.65512,11.118375 128.8824,4.670043 315.25,190.88226 L 490,365.48655 664.75,190.88226 C 851.1176,4.670043 844.34488,11.118375 860,4.9840231 c 17.33603,-6.7930057 51.69303,-6.3908945 68.8209,0.8054737 19.00389,7.9845902 37.42097,26.4236982 45.42898,45.4833122 7.15617,17.032209 7.53972,51.440621 0.7661,68.727191 -6.13435,15.65512 0.31398,8.8824 -185.89824,195.25 L 614.51345,490 789.11774,664.75 C 975.32996,851.1176 968.88163,844.34488 975.01598,860 c 6.58122,16.79554 6.411,51.14489 -0.33573,67.74869 -7.95026,19.56571 -27.29331,38.95182 -46.75622,46.86031 -16.77618,6.81677 -51.04202,7.02208 -67.92403,0.40698 -15.65512,-6.13435 -8.8824,0.31398 -195.25,-185.89824 L 490,614.51345 315.25,789.11774 C 128.8824,975.32996 135.65512,968.88163 120,975.01598 c -11.81513,4.62967 -36.033975,6.19651 -53.5,3.46118 z"
       id="path3729"
       inkscape:connector-curvature="0" />
    <path
       style="fill:#a5a5a5"
       d="M 67.607001,978.3535 C 41.5543,973.63822 16.112084,952.30878 5.5578818,926.33473 c -7.2050293,-17.73169 -7.2050293,-47.93777 0,-65.66946 C 12.265627,844.15741 5.076409,851.71671 191.88316,664.74861 L 366.48374,489.99723 192.32985,315.74861 C 6.9948696,130.31283 12.744372,136.35527 5.9456813,119.86828 -1.7426436,101.22389 -1.8504965,72.137365 5.6987705,53.279634 13.677866,33.348213 32.146638,14.806019 52.754934,6.0364021 70.793128,-1.6395381 101.08596,-1.8572578 119.33473,5.5578818 135.84259,12.265627 128.28329,5.076409 315.25139,191.88316 L 490.00277,366.48374 664.25139,192.32985 C 849.68717,6.9948696 843.64473,12.744372 860.13172,5.9456813 c 18.64439,-7.6883249 47.73091,-7.7961778 66.58865,-0.2469108 20.05111,8.0270135 39.39215,27.4672475 47.72175,47.9665025 7.40229,18.217159 7.22941,47.731077 -0.3878,66.203007 -6.79869,16.48699 -1.04919,10.44455 -186.38417,195.88033 L 613.51626,489.99723 788.11684,664.74861 c 186.80675,186.9681 179.61753,179.4088 186.32528,195.91666 7.40229,18.21716 7.22941,47.73108 -0.3878,66.20301 -8.54822,20.72965 -27.05019,39.17511 -47.71959,47.57384 -17.83514,7.24706 -48.22454,7.20242 -65.77331,-0.0966 -16.80104,-6.98804 -8.82889,0.5939 -195.81142,-186.22727 L 490,613.51903 315.25,788.11823 C 128.2834,974.92348 135.84258,967.73437 119.33473,974.44212 c -12.91713,5.2487 -35.079689,6.92452 -51.727729,3.91138 z"
       id="path3727"
       inkscape:connector-curvature="0" />
    <path
       style="fill:#6d6d6d"
       d="M 70.5,978.49677 C 13.985427,967.81771 -16.438526,906.21477 9.2614955,854.5 c 1.6399585,-3.3 4.5716695,-8.25 6.5149125,-11 1.943244,-2.75 81.87362,-83.41187 177.623062,-179.2486 L 367.48935,490.0028 192.90285,315.2514 C 81.404061,203.6473 17.041915,138.51255 14.789531,135 3.7152672,117.72992 -0.90982715,100.4793 0.33189841,81.076111 1.1523393,68.255911 3.2295754,60.456637 9.0081245,48.5 21.505497,22.641166 45.531199,5.102362 74.198951,0.91058222 83.839452,-0.49904547 98.70052,0.23771513 108,2.5863219 c 7.63474,1.9281722 20.83828,7.8664451 27.6733,12.4460281 2.65469,1.778683 83.46611,81.807871 179.58095,177.84264 L 490.0085,367.48366 664.25425,193.39662 C 760.08941,97.648747 840.75,17.720372 843.5,15.778008 859.35661,4.5782622 879.13711,-0.93437542 898.92389,0.33189841 911.74409,1.1523393 919.54336,3.2295754 931.5,9.0081245 980.82187,32.845 995.43568,96.406775 961.57654,139.82402 959.142,142.94581 879.94133,222.67451 785.57505,316.99891 691.20877,411.32331 614,489.17028 614,489.99219 c 0,0.82191 78.24061,79.7974 173.86802,175.50109 C 883.49543,761.19698 963.08561,841.525 964.73508,844 993.93724,887.81737 979.77409,945.4993 933.82402,969.89076 905.50483,984.9233 873.05479,983.21429 845,965.21276 841.49193,962.96179 776.21194,898.45531 664.75285,787.1014 L 490.0057,612.51914 315.25285,787.10022 C 203.87451,898.36908 138.50541,962.96156 135,965.21158 c -20.07834,12.8877 -42.338978,17.47277 -64.5,13.28519 z"
       id="path3725"
       inkscape:connector-curvature="0" />
    <path
       style="fill:#4f4f4f"
       d="M 76.5,979.39214 C 70.058496,978.43743 57.198517,974.64293 51.183388,971.92216 32.319832,963.38978 16.540934,947.56086 7.9764823,928.57828 2.5119493,916.46648 0.67321397,907.67087 0.64331389,893.5 0.61405918,879.635 2.3543694,871.06258 7.617846,859.14484 14.059856,844.55863 10.347796,848.43426 192.13816,666.49332 288.31217,570.23965 367,490.81765 367,490 367,489.18235 288.31217,409.76035 192.13816,313.50668 10.347796,131.56574 14.059856,135.44137 7.617846,120.85516 2.4647774,109.18741 0.67255654,100.35929 0.64331389,86.5 0.62086715,75.861578 1.0338147,72.046722 2.9165053,65.5 12.100756,33.563403 33.667506,12.004343 65.5,2.9388196 c 11.450216,-3.26088791 30.604831,-3.25276774 42,0.017805 9.55638,2.7428144 16.56008,5.7502636 24.85516,10.6730134 4.81619,2.858189 43.98517,41.455694 181.15152,178.508522 C 409.76035,288.31217 489.18235,367 490,367 490.81765,367 570.23965,288.31217 666.49332,192.13816 803.65967,55.085332 842.82865,16.487827 847.64484,13.629638 855.93992,8.7068882 862.94362,5.699439 872.5,2.9566246 c 11.39517,-3.27057274 30.54978,-3.27869291 42,-0.017805 31.81672,9.0610294 53.44211,30.6893644 62.55268,62.5611804 1.85488,6.488974 2.28681,10.455417 2.28681,21 0,13.86657 -1.77114,22.61239 -6.95734,34.35516 -6.44201,14.58621 -2.72995,10.71058 -184.52031,192.65152 C 691.68783,409.76035 613,489.18235 613,490 c 0,0.81765 78.68783,80.23965 174.86184,176.49332 181.79036,181.94094 178.0783,178.06531 184.52031,192.65152 5.1862,11.74277 6.95734,20.48859 6.95734,34.35516 0,10.54458 -0.43193,14.51103 -2.28681,21 -9.09987,31.83438 -30.7183,53.45281 -62.55268,62.55268 -6.48897,1.85488 -10.45542,2.28681 -21,2.28681 -13.86657,0 -22.61239,-1.77114 -34.35516,-6.95734 C 844.55863,965.94014 848.43426,969.6522 666.49332,787.86184 570.23965,691.68783 490.81765,613 490,613 c -0.81765,0 -80.23965,78.68783 -176.49332,174.86184 -137.16635,137.05283 -176.33533,175.65033 -181.15152,178.50852 -14.17493,8.41218 -27.82293,12.5892 -42.85516,13.11598 -5.5,0.19274 -11.35,0.15035 -13,-0.0942 z"
       id="path3723"
       inkscape:connector-curvature="0" />
    <path
       style="fill:#373737"
       d="M 76,978.99043 C 65.686628,977.28907 53.961902,973.26099 45.009152,968.3434 20.640351,954.95804 4.6769773,930.61666 0.74905496,900.85441 -1.4603856,884.11326 4.5488722,862.06153 16.003006,844.87811 18.919331,840.50305 74.935045,783.77652 194.36772,664.25 L 368.48092,490 194.36772,315.75 C 81.18941,202.48276 18.858547,139.40016 16.265699,135.5 10.85934,127.36775 7.6919128,120.83702 5.110627,112.5 3.9185997,108.65 2.5220353,104.15 2.0071506,102.5 1.492266,100.85 0.79767387,95.9 0.46361262,91.5 -1.4229895,66.651116 12.125176,36.212738 32.172302,20.260757 40.259551,13.825538 51.370206,7.8722958 60.5,5.0823858 64.35,3.9058911 68.85,2.5220353 70.5,2.0071506 75.518284,0.44118842 89.143238,-0.20154284 95.5,0.82782315 110.00521,3.1766868 123.18428,8.1335956 134.69243,15.568864 138.55657,18.065433 198.97799,77.742151 315.24999,193.901 L 489.99997,368.48095 664.24999,194.36774 C 777.51724,81.189414 840.59984,18.858547 844.5,16.265699 c 8.13225,-5.406359 14.66298,-8.5737862 23,-11.155072 3.85,-1.1920273 8.35,-2.5885917 10,-3.1034764 1.65,-0.5148846 6.6,-1.20947673 11,-1.54353798 24.84888,-1.88660212 55.28726,11.66156338 71.23924,31.70868938 6.31503,7.9362 12.37602,19.159631 15.02781,27.827698 1.09369,3.575 2.60602,8.525 3.36074,11 1.80422,5.916737 1.80422,25.083263 0,31 -4.41139,14.46656 -5.64609,17.9808 -7.9052,22.5 -1.3747,2.75 -4.29443,7.7 -6.48829,11 -2.59285,3.90016 -64.92326,66.98231 -178.10065,180.24863 L 611.52182,489.99726 786.09803,664.74863 C 897.13887,775.90087 961.96034,841.50167 964.20806,845 c 5.0637,7.88112 8.2016,14.49104 10.68131,22.5 1.19203,3.85 2.58859,8.35 3.10348,10 1.56274,5.00796 2.20943,18.63608 1.18631,25 -6.72644,41.83928 -34.77649,69.88678 -76.67916,76.67218 -6.35676,1.02936 -19.98172,0.38663 -25,-1.17933 -1.65,-0.51489 -6.15,-1.91145 -10,-3.10348 -8.33702,-2.58128 -14.86775,-5.74871 -23,-11.15507 -3.90016,-2.59285 -66.98276,-64.92371 -180.25,-178.10202 L 490,611.51908 315.75,785.63228 C 196.22348,905.06496 139.49695,961.08067 135.12189,963.99699 116.87535,976.15978 94.002854,981.96029 76,978.99043 Z"
       id="path3721"
       inkscape:connector-curvature="0" />
    <path
       style="fill:#161616"
       d="m 77.519332,979.30351 c -2.739368,-0.23756 -5.214368,-0.74054 -5.5,-1.11772 C 71.733699,977.8086 68.35,976.70249 64.5,975.72776 54.7905,973.26955 40.674075,966.05987 32.713008,959.49321 19.142202,948.29938 8.3942045,931.66898 4.2808049,915.5 3.3013622,911.65 2.0725,908.19282 1.55,907.81738 0.08739261,906.76642 0.32389739,879.72537 1.8,879.23333 c 0.66,-0.22 1.2060201,-1.375 1.2133781,-2.56666 0.023265,-3.76796 5.5846563,-18.35057 10.0710259,-26.4074 C 17.108518,843.03259 29.437251,830.4531 192.70254,666.98784 289.11614,570.45615 368,490.80916 368,489.99454 368,489.17991 289.54618,409.98538 193.65817,314.0067 74.569916,194.80582 18.093414,137.60743 15.457616,133.52838 10.600967,126.01242 5.4063051,114.15803 3.8327307,107 3.1677343,103.975 2.168326,101.19282 1.6118232,100.81738 0.31430281,99.942008 0.25637645,73.112159 1.55,72.182624 2.0725,71.807181 3.3013622,68.35 4.2808049,64.5 8.3948447,48.328504 19.098531,31.768378 32.762052,20.435455 40.644729,13.897333 54.579234,6.8046548 64.5,4.2808049 68.35,3.3013622 71.807181,2.0725 72.182624,1.55 73.1052,0.26606088 99.93941,0.31362046 100.81738,1.6007508 c 0.37544,0.5504129 3.07261,1.5388339 5.99371,2.1964912 7.46353,1.6803409 19.01546,6.6541 26.40897,11.37055 4.57769,2.920187 53.5821,51.282861 180.78664,178.419148 C 409.98538,289.51412 489.17991,368 489.99454,368 c 0.81462,0 80.46161,-78.88386 176.9933,-175.29746 C 830.4531,29.437251 843.03259,17.108518 850.25927,13.084404 858.3161,8.5980344 872.89871,3.0366433 876.66667,3.0133781 877.85833,3.0060201 879.01333,2.46 879.23333,1.8 c 0.49204,-1.47610261 27.53309,-1.71260739 28.58405,-0.25 0.37544,0.5225 3.83262,1.7513622 7.68262,2.7308049 9.92077,2.5238499 23.85527,9.6165281 31.73795,16.1546501 13.66352,11.332923 24.36721,27.893049 28.48125,44.064545 0.97944,3.85 2.1876,7.294389 2.68481,7.654198 1.40686,1.018101 1.21194,26.629853 -0.21353,28.055322 -0.65476,0.65476 -1.1965,2.11298 -1.20386,3.24048 -0.0239,3.66741 -5.64609,18.34423 -10.07102,26.29073 -4.02412,7.22668 -16.35285,19.80617 -179.61814,183.27143 C 690.88386,409.54385 612,489.18838 612,490 c 0,0.81162 78.88386,80.45615 175.29746,176.98784 163.26529,163.46526 175.59402,176.04475 179.61814,183.27143 4.48637,8.05683 10.04776,22.63944 10.07102,26.4074 0.007,1.19166 0.52564,2.33742 1.15174,2.54612 1.53167,0.51055 1.69583,24.76087 0.18919,27.94836 -0.60803,1.28637 -1.84905,5.26385 -2.75783,8.83885 -2.36693,9.31119 -9.66477,23.51375 -16.07651,31.28699 -11.0771,13.42929 -28.05606,24.40586 -43.99321,28.44077 -3.85,0.97473 -7.29791,2.18474 -7.66202,2.68891 -1.01953,1.41168 -28.14084,1.17474 -28.61576,-0.25 -0.21389,-0.64167 -1.36389,-1.17269 -2.55555,-1.18005 -3.76796,-0.0233 -18.35057,-5.58465 -26.4074,-10.07102 C 843.03259,962.89148 830.4531,950.56275 666.98784,787.29746 570.45615,690.88386 490.81162,612 490,612 489.18838,612 409.54385,690.88386 313.01216,787.29746 149.5469,950.56275 136.96741,962.89148 129.74073,966.9156 c -7.9465,4.42493 -22.62332,10.04709 -26.29073,10.07102 -1.1275,0.007 -2.4775,0.42274 -3,0.92308 -1.143819,1.09529 -15.976633,1.99689 -22.930668,1.39381 z"
       id="path3719"
       inkscape:connector-curvature="0" />
    <path
       style="fill:#000000"
       d="m 79,979.06501 c -5.019566,-0.48495 -5.816723,-0.7575 -3.5,-1.19666 l 3,-0.56869 -3.090037,-0.14983 C 69.062458,976.84205 56.673387,972.92524 48.226345,968.55573 31.857908,960.08861 19.88186,948.12396 11.467137,931.83151 7.0454062,923.27022 3.1200375,910.8151 2.8816852,904.59004 L 2.7633704,901.5 l -0.6860056,3 c -0.9912039,4.33468 -1.89212746,-8.92831 -1.22269817,-18 0.40922687,-5.54559 0.66117817,-6.37668 1.21262817,-4 l 0.6960756,3 0.1183148,-3.09004 C 3.2334293,873.22343 9.7525496,856.26621 17.263764,845 18.913854,842.525 98.729543,761.97199 194.63196,665.9933 290.53438,570.01462 369,490.82009 369,490.00546 369,489.19084 290.12626,409.54385 193.72502,313.01216 61.165672,180.27343 17.644458,136.11539 15.144498,131.81854 9.6406482,122.3587 5.1390108,110.89844 3.6192411,102.47758 2.741676,97.615096 2.0914135,95.671444 1.9539564,97.5 1.8299219,99.15 1.4011411,97.35 1.0011102,93.5 0.60107935,89.65 0.59829191,83.35 0.9949159,79.5 c 0.396624,-3.85 0.8254048,-5.65 0.9528462,-4 0.1436423,1.859754 0.7706764,0.0168 1.6497336,-4.848838 C 7.2224161,50.587003 20.106097,30.117948 36.372191,18.58009 48.254988,10.15139 65.377585,3.265816 75.409963,2.8816852 L 78.5,2.7633704 75.5,2.064515 c -4.037769,-0.9406057 8.288041,-1.72618451 18,-1.14722021 5.503279,0.32806991 6.358548,0.57004381 4,1.13168521 l -3,0.7143904 3.090037,0.1183148 C 106.77657,3.2334293 123.73379,9.7525496 135,17.263764 137.475,18.913854 218.02801,98.729543 314.0067,194.63196 409.98538,290.53438 489.17991,369 489.99454,369 c 0.81462,0 80.46161,-78.87374 176.9933,-175.27498 C 799.72657,61.165672 843.88461,17.644458 848.18146,15.144498 857.6413,9.6406482 869.10156,5.1390108 877.52242,3.6192411 c 5.00215,-0.9027713 6.85866,-1.5319212 4.97758,-1.686846 -5.90757,-0.486545 11.14565,-1.44285048 18,-1.00939842 5.4758,0.34627632 6.34677,0.59483332 4,1.14151832 l -3,0.6988554 3.09004,0.1183148 c 6.22506,0.2383523 18.68018,4.163721 27.24147,8.5854518 16.29245,8.414723 28.2571,20.390771 36.72422,36.759208 4.40075,8.507419 8.32444,20.963959 8.56258,27.183618 l 0.11832,3.090037 0.69886,-3 c 0.54668,-2.346772 0.79524,-1.475802 1.14151,4 0.43363,6.857057 -0.52275,23.90281 -1.00991,18 -0.16775,-2.03259 -0.66783,-0.74271 -1.55079,4 -2.18353,11.7286 -6.87978,23.14447 -13.78121,33.5 -1.64946,2.475 -81.46463,83.02801 -177.36705,179.0067 C 689.46562,409.98538 611,489.18237 611,490 c 0,0.81763 78.46562,80.01462 174.36804,175.9933 95.90242,95.97869 175.71811,176.5317 177.3682,179.0067 7.51121,11.26621 14.03033,28.22343 14.38207,37.40996 l 0.11832,3.09004 0.69886,-3 c 0.54668,-2.34677 0.79524,-1.4758 1.14151,4 0.43346,6.85435 -0.52285,23.90757 -1.0094,18 -0.15492,-1.88108 -0.78407,-0.0246 -1.68684,4.97758 -2.8775,15.94389 -11.03528,31.082 -23.42823,43.47495 -12.39295,12.39295 -27.53106,20.55073 -43.47495,23.42823 -4.93386,0.89045 -6.83298,1.52996 -4.97758,1.67615 1.65,0.13002 -0.15,0.51853 -4,0.86336 -3.85,0.34483 -10.15,0.34964 -14,0.0107 -3.85,-0.33895 -5.65,-0.72746 -4,-0.86336 1.88108,-0.15492 0.0246,-0.78407 -4.97758,-1.68684 C 869.10156,974.861 857.6413,970.35936 848.18146,964.85551 843.88461,962.35554 799.72657,918.83433 666.98784,786.27498 570.45615,689.87374 490.80916,611 489.99454,611 c -0.81463,0 -80.00916,78.46562 -175.98784,174.36804 -95.97869,95.90242 -176.67871,175.82278 -179.3334,177.60081 -10.36291,6.94075 -28.39656,13.79322 -37.237189,14.14946 L 94.5,977.23663 97.5,978 c 2.52198,0.64174 2.123631,0.7844 -2.5,0.89534 -3.025,0.0726 -6.4,0.28175 -7.5,0.46481 -1.1,0.18306 -4.925,0.0503 -8.5,-0.29514 z"
       id="path3717"
       inkscape:connector-curvature="0" />
  </g>
</svg>
